solid 
 facet normal  0.000000e+00  2.588190e-01 -9.659258e-01
   outer loop
     vertex  1.000000e-02  8.550504e-04 -2.349232e-03
     vertex  1.000000e-02  4.341204e-04 -2.462019e-03
     vertex -1.000000e-02  4.341204e-04 -2.462019e-03
   endloop
 endfacet
 facet normal  0.000000e+00  2.588190e-01 -9.659258e-01
   outer loop
     vertex  1.000000e-02  8.550504e-04 -2.349232e-03
     vertex -1.000000e-02  4.341204e-04 -2.462019e-03
     vertex -1.000000e-02  8.550504e-04 -2.349232e-03
   endloop
 endfacet
 facet normal  0.000000e+00  4.226183e-01 -9.063078e-01
   outer loop
     vertex  1.000000e-02  1.250000e-03 -2.165064e-03
     vertex -1.000000e-02  8.550504e-04 -2.349232e-03
     vertex -1.000000e-02  1.250000e-03 -2.165064e-03
   endloop
 endfacet
 facet normal  0.000000e+00  4.226183e-01 -9.063078e-01
   outer loop
     vertex  1.000000e-02  1.250000e-03 -2.165064e-03
     vertex  1.000000e-02  8.550504e-04 -2.349232e-03
     vertex -1.000000e-02  8.550504e-04 -2.349232e-03
   endloop
 endfacet
 facet normal  0.000000e+00 -8.715574e-02  9.961947e-01
   outer loop
     vertex  1.000000e-02 -4.341204e-04  2.462019e-03
     vertex -1.000000e-02  6.123234e-19  2.500000e-03
     vertex -1.000000e-02 -4.341204e-04  2.462019e-03
   endloop
 endfacet
 facet normal  0.000000e+00 -8.715574e-02  9.961947e-01
   outer loop
     vertex  1.000000e-02 -4.341204e-04  2.462019e-03
     vertex  1.000000e-02  6.123234e-19  2.500000e-03
     vertex -1.000000e-02  6.123234e-19  2.500000e-03
   endloop
 endfacet
 facet normal  0.000000e+00  5.735764e-01 -8.191520e-01
   outer loop
     vertex  1.000000e-02  1.606969e-03 -1.915111e-03
     vertex -1.000000e-02  1.250000e-03 -2.165064e-03
     vertex -1.000000e-02  1.606969e-03 -1.915111e-03
   endloop
 endfacet
 facet normal  0.000000e+00  5.735764e-01 -8.191520e-01
   outer loop
     vertex  1.000000e-02  1.606969e-03 -1.915111e-03
     vertex  1.000000e-02  1.250000e-03 -2.165064e-03
     vertex -1.000000e-02  1.250000e-03 -2.165064e-03
   endloop
 endfacet
 facet normal  0.000000e+00 -2.588190e-01  9.659258e-01
   outer loop
     vertex  1.000000e-02 -8.550504e-04  2.349232e-03
     vertex -1.000000e-02 -4.341204e-04  2.462019e-03
     vertex -1.000000e-02 -8.550504e-04  2.349232e-03
   endloop
 endfacet
 facet normal  0.000000e+00 -2.588190e-01  9.659258e-01
   outer loop
     vertex  1.000000e-02 -8.550504e-04  2.349232e-03
     vertex  1.000000e-02 -4.341204e-04  2.462019e-03
     vertex -1.000000e-02 -4.341204e-04  2.462019e-03
   endloop
 endfacet
 facet normal  0.000000e+00  7.071068e-01 -7.071068e-01
   outer loop
     vertex  1.000000e-02  1.915111e-03 -1.606969e-03
     vertex -1.000000e-02  1.606969e-03 -1.915111e-03
     vertex -1.000000e-02  1.915111e-03 -1.606969e-03
   endloop
 endfacet
 facet normal  0.000000e+00  7.071068e-01 -7.071068e-01
   outer loop
     vertex  1.000000e-02  1.915111e-03 -1.606969e-03
     vertex  1.000000e-02  1.606969e-03 -1.915111e-03
     vertex -1.000000e-02  1.606969e-03 -1.915111e-03
   endloop
 endfacet
 facet normal  0.000000e+00 -4.226183e-01  9.063078e-01
   outer loop
     vertex  1.000000e-02 -1.250000e-03  2.165064e-03
     vertex -1.000000e-02 -8.550504e-04  2.349232e-03
     vertex -1.000000e-02 -1.250000e-03  2.165064e-03
   endloop
 endfacet
 facet normal  0.000000e+00 -4.226183e-01  9.063078e-01
   outer loop
     vertex  1.000000e-02 -1.250000e-03  2.165064e-03
     vertex  1.000000e-02 -8.550504e-04  2.349232e-03
     vertex -1.000000e-02 -8.550504e-04  2.349232e-03
   endloop
 endfacet
 facet normal  0.000000e+00  8.191520e-01 -5.735764e-01
   outer loop
     vertex  1.000000e-02  2.165064e-03 -1.250000e-03
     vertex -1.000000e-02  1.915111e-03 -1.606969e-03
     vertex -1.000000e-02  2.165064e-03 -1.250000e-03
   endloop
 endfacet
 facet normal  0.000000e+00  8.191520e-01 -5.735764e-01
   outer loop
     vertex  1.000000e-02  2.165064e-03 -1.250000e-03
     vertex  1.000000e-02  1.915111e-03 -1.606969e-03
     vertex -1.000000e-02  1.915111e-03 -1.606969e-03
   endloop
 endfacet
 facet normal  0.000000e+00 -5.735764e-01  8.191520e-01
   outer loop
     vertex  1.000000e-02 -1.606969e-03  1.915111e-03
     vertex -1.000000e-02 -1.250000e-03  2.165064e-03
     vertex -1.000000e-02 -1.606969e-03  1.915111e-03
   endloop
 endfacet
 facet normal  0.000000e+00 -5.735764e-01  8.191520e-01
   outer loop
     vertex  1.000000e-02 -1.606969e-03  1.915111e-03
     vertex  1.000000e-02 -1.250000e-03  2.165064e-03
     vertex -1.000000e-02 -1.250000e-03  2.165064e-03
   endloop
 endfacet
 facet normal  0.000000e+00  9.063078e-01 -4.226183e-01
   outer loop
     vertex  1.000000e-02  2.349232e-03 -8.550504e-04
     vertex -1.000000e-02  2.165064e-03 -1.250000e-03
     vertex -1.000000e-02  2.349232e-03 -8.550504e-04
   endloop
 endfacet
 facet normal  0.000000e+00  9.063078e-01 -4.226183e-01
   outer loop
     vertex  1.000000e-02  2.349232e-03 -8.550504e-04
     vertex  1.000000e-02  2.165064e-03 -1.250000e-03
     vertex -1.000000e-02  2.165064e-03 -1.250000e-03
   endloop
 endfacet
 facet normal  0.000000e+00 -7.071068e-01  7.071068e-01
   outer loop
     vertex  1.000000e-02 -1.915111e-03  1.606969e-03
     vertex -1.000000e-02 -1.606969e-03  1.915111e-03
     vertex -1.000000e-02 -1.915111e-03  1.606969e-03
   endloop
 endfacet
 facet normal  0.000000e+00 -7.071068e-01  7.071068e-01
   outer loop
     vertex  1.000000e-02 -1.915111e-03  1.606969e-03
     vertex  1.000000e-02 -1.606969e-03  1.915111e-03
     vertex -1.000000e-02 -1.606969e-03  1.915111e-03
   endloop
 endfacet
 facet normal  0.000000e+00  9.659258e-01 -2.588190e-01
   outer loop
     vertex  1.000000e-02  2.462019e-03 -4.341204e-04
     vertex -1.000000e-02  2.349232e-03 -8.550504e-04
     vertex -1.000000e-02  2.462019e-03 -4.341204e-04
   endloop
 endfacet
 facet normal  0.000000e+00 -8.191520e-01  5.735764e-01
   outer loop
     vertex  1.000000e-02 -2.165064e-03  1.250000e-03
     vertex  1.000000e-02 -1.915111e-03  1.606969e-03
     vertex -1.000000e-02 -1.915111e-03  1.606969e-03
   endloop
 endfacet
 facet normal  0.000000e+00  9.659258e-01 -2.588190e-01
   outer loop
     vertex  1.000000e-02  2.462019e-03 -4.341204e-04
     vertex  1.000000e-02  2.349232e-03 -8.550504e-04
     vertex -1.000000e-02  2.349232e-03 -8.550504e-04
   endloop
 endfacet
 facet normal  0.000000e+00 -8.191520e-01  5.735764e-01
   outer loop
     vertex  1.000000e-02 -2.165064e-03  1.250000e-03
     vertex -1.000000e-02 -1.915111e-03  1.606969e-03
     vertex -1.000000e-02 -2.165064e-03  1.250000e-03
   endloop
 endfacet
 facet normal  0.000000e+00  9.961947e-01 -8.715574e-02
   outer loop
     vertex  1.000000e-02  2.500000e-03 -7.120581e-18
     vertex -1.000000e-02  2.462019e-03 -4.341204e-04
     vertex -1.000000e-02  2.500000e-03 -7.120581e-18
   endloop
 endfacet
 facet normal  0.000000e+00  9.961947e-01 -8.715574e-02
   outer loop
     vertex  1.000000e-02  2.500000e-03 -7.120581e-18
     vertex  1.000000e-02  2.462019e-03 -4.341204e-04
     vertex -1.000000e-02  2.462019e-03 -4.341204e-04
   endloop
 endfacet
 facet normal  0.000000e+00 -9.063078e-01  4.226183e-01
   outer loop
     vertex  1.000000e-02 -2.349232e-03  8.550504e-04
     vertex  1.000000e-02 -2.165064e-03  1.250000e-03
     vertex -1.000000e-02 -2.165064e-03  1.250000e-03
   endloop
 endfacet
 facet normal  0.000000e+00 -9.063078e-01  4.226183e-01
   outer loop
     vertex  1.000000e-02 -2.349232e-03  8.550504e-04
     vertex -1.000000e-02 -2.165064e-03  1.250000e-03
     vertex -1.000000e-02 -2.349232e-03  8.550504e-04
   endloop
 endfacet
 facet normal  0.000000e+00  9.961947e-01  8.715574e-02
   outer loop
     vertex  1.000000e-02  2.462019e-03  4.341204e-04
     vertex -1.000000e-02  2.500000e-03 -7.120581e-18
     vertex -1.000000e-02  2.462019e-03  4.341204e-04
   endloop
 endfacet
 facet normal  0.000000e+00  9.961947e-01  8.715574e-02
   outer loop
     vertex  1.000000e-02  2.462019e-03  4.341204e-04
     vertex  1.000000e-02  2.500000e-03 -7.120581e-18
     vertex -1.000000e-02  2.500000e-03 -7.120581e-18
   endloop
 endfacet
 facet normal  0.000000e+00 -9.659258e-01  2.588190e-01
   outer loop
     vertex  1.000000e-02 -2.462019e-03  4.341204e-04
     vertex  1.000000e-02 -2.349232e-03  8.550504e-04
     vertex -1.000000e-02 -2.349232e-03  8.550504e-04
   endloop
 endfacet
 facet normal  0.000000e+00 -9.659258e-01  2.588190e-01
   outer loop
     vertex  1.000000e-02 -2.462019e-03  4.341204e-04
     vertex -1.000000e-02 -2.349232e-03  8.550504e-04
     vertex -1.000000e-02 -2.462019e-03  4.341204e-04
   endloop
 endfacet
 facet normal  0.000000e+00  9.659258e-01  2.588190e-01
   outer loop
     vertex  1.000000e-02  2.349232e-03  8.550504e-04
     vertex -1.000000e-02  2.462019e-03  4.341204e-04
     vertex -1.000000e-02  2.349232e-03  8.550504e-04
   endloop
 endfacet
 facet normal  0.000000e+00  9.659258e-01  2.588190e-01
   outer loop
     vertex  1.000000e-02  2.349232e-03  8.550504e-04
     vertex  1.000000e-02  2.462019e-03  4.341204e-04
     vertex -1.000000e-02  2.462019e-03  4.341204e-04
   endloop
 endfacet
 facet normal  0.000000e+00 -9.961947e-01  8.715574e-02
   outer loop
     vertex  1.000000e-02 -2.500000e-03  1.530808e-19
     vertex  1.000000e-02 -2.462019e-03  4.341204e-04
     vertex -1.000000e-02 -2.462019e-03  4.341204e-04
   endloop
 endfacet
 facet normal  0.000000e+00 -9.961947e-01  8.715574e-02
   outer loop
     vertex  1.000000e-02 -2.500000e-03  1.530808e-19
     vertex -1.000000e-02 -2.462019e-03  4.341204e-04
     vertex -1.000000e-02 -2.500000e-03  1.530808e-19
   endloop
 endfacet
 facet normal  0.000000e+00  9.063078e-01  4.226183e-01
   outer loop
     vertex  1.000000e-02  2.165064e-03  1.250000e-03
     vertex -1.000000e-02  2.349232e-03  8.550504e-04
     vertex -1.000000e-02  2.165064e-03  1.250000e-03
   endloop
 endfacet
 facet normal  0.000000e+00  9.063078e-01  4.226183e-01
   outer loop
     vertex  1.000000e-02  2.165064e-03  1.250000e-03
     vertex  1.000000e-02  2.349232e-03  8.550504e-04
     vertex -1.000000e-02  2.349232e-03  8.550504e-04
   endloop
 endfacet
 facet normal  0.000000e+00 -9.961947e-01 -8.715574e-02
   outer loop
     vertex  1.000000e-02 -2.462019e-03 -4.341204e-04
     vertex  1.000000e-02 -2.500000e-03  1.530808e-19
     vertex -1.000000e-02 -2.500000e-03  1.530808e-19
   endloop
 endfacet
 facet normal -0.000000e+00 -9.961947e-01 -8.715574e-02
   outer loop
     vertex  1.000000e-02 -2.462019e-03 -4.341204e-04
     vertex -1.000000e-02 -2.500000e-03  1.530808e-19
     vertex -1.000000e-02 -2.462019e-03 -4.341204e-04
   endloop
 endfacet
 facet normal  0.000000e+00  8.191520e-01  5.735764e-01
   outer loop
     vertex  1.000000e-02  1.915111e-03  1.606969e-03
     vertex -1.000000e-02  2.165064e-03  1.250000e-03
     vertex -1.000000e-02  1.915111e-03  1.606969e-03
   endloop
 endfacet
 facet normal  0.000000e+00 -9.659258e-01 -2.588190e-01
   outer loop
     vertex  1.000000e-02 -2.349232e-03 -8.550504e-04
     vertex  1.000000e-02 -2.462019e-03 -4.341204e-04
     vertex -1.000000e-02 -2.462019e-03 -4.341204e-04
   endloop
 endfacet
 facet normal  0.000000e+00  8.191520e-01  5.735764e-01
   outer loop
     vertex  1.000000e-02  1.915111e-03  1.606969e-03
     vertex  1.000000e-02  2.165064e-03  1.250000e-03
     vertex -1.000000e-02  2.165064e-03  1.250000e-03
   endloop
 endfacet
 facet normal -0.000000e+00 -9.659258e-01 -2.588190e-01
   outer loop
     vertex  1.000000e-02 -2.349232e-03 -8.550504e-04
     vertex -1.000000e-02 -2.462019e-03 -4.341204e-04
     vertex -1.000000e-02 -2.349232e-03 -8.550504e-04
   endloop
 endfacet
 facet normal  0.000000e+00  7.071068e-01  7.071068e-01
   outer loop
     vertex  1.000000e-02  1.606969e-03  1.915111e-03
     vertex  1.000000e-02  1.915111e-03  1.606969e-03
     vertex -1.000000e-02  1.915111e-03  1.606969e-03
   endloop
 endfacet
 facet normal  0.000000e+00  7.071068e-01  7.071068e-01
   outer loop
     vertex  1.000000e-02  1.606969e-03  1.915111e-03
     vertex -1.000000e-02  1.915111e-03  1.606969e-03
     vertex -1.000000e-02  1.606969e-03  1.915111e-03
   endloop
 endfacet
 facet normal  0.000000e+00 -9.063078e-01 -4.226183e-01
   outer loop
     vertex  1.000000e-02 -2.165064e-03 -1.250000e-03
     vertex  1.000000e-02 -2.349232e-03 -8.550504e-04
     vertex -1.000000e-02 -2.349232e-03 -8.550504e-04
   endloop
 endfacet
 facet normal -0.000000e+00 -9.063078e-01 -4.226183e-01
   outer loop
     vertex  1.000000e-02 -2.165064e-03 -1.250000e-03
     vertex -1.000000e-02 -2.349232e-03 -8.550504e-04
     vertex -1.000000e-02 -2.165064e-03 -1.250000e-03
   endloop
 endfacet
 facet normal  0.000000e+00  5.735764e-01  8.191520e-01
   outer loop
     vertex  1.000000e-02  1.250000e-03  2.165064e-03
     vertex  1.000000e-02  1.606969e-03  1.915111e-03
     vertex -1.000000e-02  1.606969e-03  1.915111e-03
   endloop
 endfacet
 facet normal  0.000000e+00  5.735764e-01  8.191520e-01
   outer loop
     vertex  1.000000e-02  1.250000e-03  2.165064e-03
     vertex -1.000000e-02  1.606969e-03  1.915111e-03
     vertex -1.000000e-02  1.250000e-03  2.165064e-03
   endloop
 endfacet
 facet normal  0.000000e+00 -8.191520e-01 -5.735764e-01
   outer loop
     vertex  1.000000e-02 -1.915111e-03 -1.606969e-03
     vertex  1.000000e-02 -2.165064e-03 -1.250000e-03
     vertex -1.000000e-02 -2.165064e-03 -1.250000e-03
   endloop
 endfacet
 facet normal -0.000000e+00 -8.191520e-01 -5.735764e-01
   outer loop
     vertex  1.000000e-02 -1.915111e-03 -1.606969e-03
     vertex -1.000000e-02 -2.165064e-03 -1.250000e-03
     vertex -1.000000e-02 -1.915111e-03 -1.606969e-03
   endloop
 endfacet
 facet normal  0.000000e+00  4.226183e-01  9.063078e-01
   outer loop
     vertex  1.000000e-02  8.550504e-04  2.349232e-03
     vertex  1.000000e-02  1.250000e-03  2.165064e-03
     vertex -1.000000e-02  1.250000e-03  2.165064e-03
   endloop
 endfacet
 facet normal  0.000000e+00  4.226183e-01  9.063078e-01
   outer loop
     vertex  1.000000e-02  8.550504e-04  2.349232e-03
     vertex -1.000000e-02  1.250000e-03  2.165064e-03
     vertex -1.000000e-02  8.550504e-04  2.349232e-03
   endloop
 endfacet
 facet normal  0.000000e+00 -7.071068e-01 -7.071068e-01
   outer loop
     vertex  1.000000e-02 -1.606969e-03 -1.915111e-03
     vertex  1.000000e-02 -1.915111e-03 -1.606969e-03
     vertex -1.000000e-02 -1.915111e-03 -1.606969e-03
   endloop
 endfacet
 facet normal -0.000000e+00 -7.071068e-01 -7.071068e-01
   outer loop
     vertex  1.000000e-02 -1.606969e-03 -1.915111e-03
     vertex -1.000000e-02 -1.915111e-03 -1.606969e-03
     vertex -1.000000e-02 -1.606969e-03 -1.915111e-03
   endloop
 endfacet
 facet normal  0.000000e+00  2.588190e-01  9.659258e-01
   outer loop
     vertex  1.000000e-02  4.341204e-04  2.462019e-03
     vertex  1.000000e-02  8.550504e-04  2.349232e-03
     vertex -1.000000e-02  8.550504e-04  2.349232e-03
   endloop
 endfacet
 facet normal  0.000000e+00  2.588190e-01  9.659258e-01
   outer loop
     vertex  1.000000e-02  4.341204e-04  2.462019e-03
     vertex -1.000000e-02  8.550504e-04  2.349232e-03
     vertex -1.000000e-02  4.341204e-04  2.462019e-03
   endloop
 endfacet
 facet normal  0.000000e+00 -5.735764e-01 -8.191520e-01
   outer loop
     vertex  1.000000e-02 -1.250000e-03 -2.165064e-03
     vertex  1.000000e-02 -1.606969e-03 -1.915111e-03
     vertex -1.000000e-02 -1.606969e-03 -1.915111e-03
   endloop
 endfacet
 facet normal  0.000000e+00  8.715574e-02  9.961947e-01
   outer loop
     vertex  1.000000e-02  6.123234e-19  2.500000e-03
     vertex  1.000000e-02  4.341204e-04  2.462019e-03
     vertex -1.000000e-02  4.341204e-04  2.462019e-03
   endloop
 endfacet
 facet normal -0.000000e+00 -5.735764e-01 -8.191520e-01
   outer loop
     vertex  1.000000e-02 -1.250000e-03 -2.165064e-03
     vertex -1.000000e-02 -1.606969e-03 -1.915111e-03
     vertex -1.000000e-02 -1.250000e-03 -2.165064e-03
   endloop
 endfacet
 facet normal  0.000000e+00  8.715574e-02  9.961947e-01
   outer loop
     vertex  1.000000e-02  6.123234e-19  2.500000e-03
     vertex -1.000000e-02  4.341204e-04  2.462019e-03
     vertex -1.000000e-02  6.123234e-19  2.500000e-03
   endloop
 endfacet
 facet normal  0.000000e+00 -4.226183e-01 -9.063078e-01
   outer loop
     vertex  1.000000e-02 -8.550504e-04 -2.349232e-03
     vertex  1.000000e-02 -1.250000e-03 -2.165064e-03
     vertex -1.000000e-02 -1.250000e-03 -2.165064e-03
   endloop
 endfacet
 facet normal -0.000000e+00 -4.226183e-01 -9.063078e-01
   outer loop
     vertex  1.000000e-02 -8.550504e-04 -2.349232e-03
     vertex -1.000000e-02 -1.250000e-03 -2.165064e-03
     vertex -1.000000e-02 -8.550504e-04 -2.349232e-03
   endloop
 endfacet
 facet normal  0.000000e+00 -2.588190e-01 -9.659258e-01
   outer loop
     vertex  1.000000e-02 -4.341204e-04 -2.462019e-03
     vertex  1.000000e-02 -8.550504e-04 -2.349232e-03
     vertex -1.000000e-02 -8.550504e-04 -2.349232e-03
   endloop
 endfacet
 facet normal -0.000000e+00 -2.588190e-01 -9.659258e-01
   outer loop
     vertex  1.000000e-02 -4.341204e-04 -2.462019e-03
     vertex -1.000000e-02 -8.550504e-04 -2.349232e-03
     vertex -1.000000e-02 -4.341204e-04 -2.462019e-03
   endloop
 endfacet
 facet normal  0.000000e+00 -8.715574e-02 -9.961947e-01
   outer loop
     vertex  1.000000e-02 -3.636831e-18 -2.500000e-03
     vertex  1.000000e-02 -4.341204e-04 -2.462019e-03
     vertex -1.000000e-02 -4.341204e-04 -2.462019e-03
   endloop
 endfacet
 facet normal -0.000000e+00 -8.715574e-02 -9.961947e-01
   outer loop
     vertex  1.000000e-02 -3.636831e-18 -2.500000e-03
     vertex -1.000000e-02 -4.341204e-04 -2.462019e-03
     vertex -1.000000e-02 -3.636831e-18 -2.500000e-03
   endloop
 endfacet
 facet normal  0.000000e+00  8.715574e-02 -9.961947e-01
   outer loop
     vertex  1.000000e-02  4.341204e-04 -2.462019e-03
     vertex  1.000000e-02 -3.636831e-18 -2.500000e-03
     vertex -1.000000e-02 -3.636831e-18 -2.500000e-03
   endloop
 endfacet
 facet normal  0.000000e+00  8.715574e-02 -9.961947e-01
   outer loop
     vertex  1.000000e-02  4.341204e-04 -2.462019e-03
     vertex -1.000000e-02 -3.636831e-18 -2.500000e-03
     vertex -1.000000e-02  4.341204e-04 -2.462019e-03
   endloop
 endfacet
endsolid
